<svg aria-hidden="true" style="position: absolute; width: 0; height: 0; overflow: hidden;" version="1.1"
	xmlns="http://www.w3.org/2000/svg" xmlns:xlink="http://www.w3.org/1999/xlink">
	<defs>
		<symbol id="icon-play" viewBox="0 0 25 32">
			<path fill="currentColor"
				d="M23.71 14.16l-20.232-13.778c-0.682-0.459-1.565-0.508-2.295-0.125s-1.182 1.141-1.182 1.968v27.556c0 0.821 0.452 1.579 1.182 1.968 0.73 0.383 1.607 0.334 2.288-0.125l20.239-13.778c0.605-0.417 0.974-1.099 0.974-1.836 0-0.744-0.362-1.433-0.974-1.85z">
			</path>
		</symbol>
		<symbol id="icon-building" viewBox="0 0 32 32">
			<path fill="#ffe13b" style="fill: var(--color1, #ffe13b)"
				d="M16.085 31.915c-8.722 0-15.83-7.108-15.83-15.83s7.108-15.83 15.83-15.83c8.722 0 15.83 7.108 15.83 15.83s-7.108 15.83-15.83 15.83zM16.085 1.388c-8.099 0-14.697 6.598-14.697 14.697s6.598 14.697 14.697 14.697c8.099 0 14.697-6.598 14.697-14.697s-6.598-14.697-14.697-14.697z">
			</path>
			<path fill="#34b294" style="fill: var(--color2, #34b294)"
				d="M23.618 13.055h-14.981c-0.17 0-0.283-0.085-0.34-0.255-0.057-0.142 0-0.312 0.113-0.425l7.533-6.060c0.142-0.113 0.34-0.113 0.453 0l7.448 6.060c0.113 0.085 0.17 0.255 0.113 0.425-0.057 0.142-0.198 0.255-0.34 0.255zM9.685 12.29h12.885l-6.428-5.211-6.457 5.211z">
			</path>
			<path fill="#34b294" style="fill: var(--color2, #34b294)"
				d="M16.113 11.356c-0.765 0-1.388-0.623-1.388-1.388s0.623-1.388 1.388-1.388c0.765 0 1.388 0.623 1.388 1.388 0 0.793-0.623 1.388-1.388 1.388zM16.113 9.345c-0.34 0-0.623 0.283-0.623 0.623s0.283 0.623 0.623 0.623c0.34 0 0.623-0.283 0.623-0.623 0.028-0.34-0.283-0.623-0.623-0.623z">
			</path>
			<path fill="#34b294" style="fill: var(--color2, #34b294)"
				d="M10.081 21.522c-0.198 0-0.368-0.17-0.368-0.368v-6.428c0-0.198 0.17-0.368 0.368-0.368s0.368 0.17 0.368 0.368v6.428c0 0.198-0.17 0.368-0.368 0.368z">
			</path>
			<path fill="#34b294" style="fill: var(--color2, #34b294)"
				d="M12.035 21.522c-0.198 0-0.368-0.17-0.368-0.368v-6.428c0-0.198 0.17-0.368 0.368-0.368s0.368 0.17 0.368 0.368v6.428c0 0.198-0.17 0.368-0.368 0.368z">
			</path>
			<path fill="#34b294" style="fill: var(--color2, #34b294)"
				d="M15.094 21.522c-0.198 0-0.368-0.17-0.368-0.368v-6.428c0-0.198 0.17-0.368 0.368-0.368s0.368 0.17 0.368 0.368v6.428c0 0.198-0.17 0.368-0.368 0.368z">
			</path>
			<path fill="#34b294" style="fill: var(--color2, #34b294)"
				d="M17.048 21.522c-0.198 0-0.368-0.17-0.368-0.368v-6.428c0-0.198 0.17-0.368 0.368-0.368s0.368 0.17 0.368 0.368v6.428c0 0.198-0.17 0.368-0.368 0.368z">
			</path>
			<path fill="#34b294" style="fill: var(--color2, #34b294)"
				d="M12.545 14.669h-2.973c-0.198 0-0.368-0.17-0.368-0.368v-1.303c0-0.198 0.17-0.368 0.368-0.368s0.368 0.17 0.368 0.368v0.934h2.265v-0.991c0-0.198 0.17-0.368 0.368-0.368s0.368 0.17 0.368 0.368v1.359c-0.028 0.198-0.17 0.368-0.396 0.368z">
			</path>
			<path fill="#34b294" style="fill: var(--color2, #34b294)"
				d="M17.558 14.669h-3.002c-0.198 0-0.368-0.17-0.368-0.368v-1.303c0-0.198 0.17-0.368 0.368-0.368s0.368 0.17 0.368 0.368v0.934h2.266v-0.991c0-0.198 0.17-0.368 0.368-0.368s0.368 0.17 0.368 0.368v1.359c0 0.198-0.17 0.368-0.368 0.368z">
			</path>
			<path fill="#34b294" style="fill: var(--color2, #34b294)"
				d="M22.627 14.669h-3.002c-0.198 0-0.368-0.17-0.368-0.368v-1.303c0-0.198 0.17-0.368 0.368-0.368s0.368 0.17 0.368 0.368v0.934h2.265v-0.991c0-0.198 0.17-0.368 0.368-0.368s0.368 0.17 0.368 0.368v1.359c0 0.198-0.17 0.368-0.368 0.368z">
			</path>
			<path fill="#34b294" style="fill: var(--color2, #34b294)"
				d="M19.625 23.108c-0.198 0-0.368-0.17-0.368-0.368v-1.359c0-0.198 0.17-0.368 0.368-0.368h3.002c0.198 0 0.368 0.17 0.368 0.368v1.274c0 0.198-0.17 0.368-0.368 0.368s-0.368-0.17-0.368-0.368v-0.934h-2.265v0.991c0 0.227-0.17 0.396-0.368 0.396z">
			</path>
			<path fill="#34b294" style="fill: var(--color2, #34b294)"
				d="M14.556 23.108c-0.198 0-0.368-0.17-0.368-0.368v-1.359c0-0.198 0.17-0.368 0.368-0.368h3.002c0.198 0 0.368 0.17 0.368 0.368v1.274c0 0.198-0.17 0.368-0.368 0.368s-0.368-0.17-0.368-0.368v-0.934h-2.265v0.991c0.028 0.227-0.142 0.396-0.368 0.396z">
			</path>
			<path fill="#34b294" style="fill: var(--color2, #34b294)"
				d="M9.572 23.108c-0.198 0-0.368-0.17-0.368-0.368v-1.359c0-0.198 0.17-0.368 0.368-0.368h3.002c0.198 0 0.368 0.17 0.368 0.368v1.274c0 0.198-0.17 0.368-0.368 0.368s-0.396-0.142-0.396-0.368v-0.934h-2.265v0.991c0.028 0.227-0.142 0.396-0.34 0.396z">
			</path>
			<path fill="#34b294" style="fill: var(--color2, #34b294)"
				d="M24.241 24.609c-0.113 0-0.227-0.057-0.311-0.17l-0.765-1.161h-14.273l-0.68 1.104c-0.113 0.17-0.34 0.227-0.51 0.113s-0.227-0.34-0.113-0.51l0.765-1.274c0.057-0.113 0.198-0.17 0.312-0.17h14.697c0.113 0 0.227 0.057 0.311 0.17l0.878 1.331c0.113 0.17 0.057 0.396-0.113 0.51-0.057 0.057-0.113 0.057-0.198 0.057z">
			</path>
			<path fill="#34b294" style="fill: var(--color2, #34b294)"
				d="M25.175 24.779h-18.181c-0.198 0-0.368-0.17-0.368-0.368s0.17-0.368 0.368-0.368h18.181c0.198 0 0.368 0.17 0.368 0.368s-0.17 0.368-0.368 0.368z">
			</path>
			<path fill="#34b294" style="fill: var(--color2, #34b294)"
				d="M20.163 21.522c-0.198 0-0.368-0.17-0.368-0.368v-6.428c0-0.198 0.17-0.368 0.368-0.368s0.368 0.17 0.368 0.368v6.428c0 0.198-0.17 0.368-0.368 0.368z">
			</path>
			<path fill="#34b294" style="fill: var(--color2, #34b294)"
				d="M22.088 21.522c-0.198 0-0.368-0.17-0.368-0.368v-6.428c0-0.198 0.17-0.368 0.368-0.368s0.368 0.17 0.368 0.368v6.428c0 0.198-0.17 0.368-0.368 0.368z">
			</path>
		</symbol>
		<symbol id="icon-leave" viewBox="0 0 32 32">
			<path fill="#ffe13b" style="fill: var(--color1, #ffe13b)"
				d="M16.085 31.915c-8.722 0-15.83-7.108-15.83-15.83s7.108-15.83 15.83-15.83c8.722 0 15.83 7.108 15.83 15.83s-7.108 15.83-15.83 15.83zM16.085 1.388c-8.099 0-14.697 6.598-14.697 14.697s6.598 14.697 14.697 14.697c8.099 0 14.697-6.598 14.697-14.697s-6.598-14.697-14.697-14.697z">
			</path>
			<path fill="#34b294" style="fill: var(--color2, #34b294)"
				d="M7.051 24.609c-0.17 0-0.34-0.113-0.368-0.311-0.028-0.085-0.311-1.869 0.595-4.446 0.113-0.311 0.113-0.34 0.255-0.651 0 0-0.113-0.34-0.113-0.821-0.028-5.975 2.832-8.269 3.058-8.467 2.804-2.549 6.343-3.285 8.835-3.455 2.69-0.198 4.701 0.227 4.786 0.255 0.17 0.028 0.283 0.17 0.283 0.34s-0.085 0.311-0.255 0.368c-4.248 1.501-7.788 3.313-10.478 5.409-2.152 1.671-3.795 3.483-4.871 5.466-1.841 3.313-1.416 5.862-1.416 5.89 0.028 0.198-0.085 0.396-0.311 0.425 0.028 0 0 0 0 0zM20.701 7.165c-0.425 0-0.878 0-1.359 0.057-2.35 0.142-5.749 0.85-8.354 3.257 0 0 0 0-0.028 0.028s-2.605 2.209-2.804 7.448c1.133-2.039 2.804-3.936 5.041-5.664 2.464-1.926 5.607-3.596 9.317-5.041-0.51-0.057-1.133-0.085-1.812-0.085z">
			</path>
			<path fill="#34b294" style="fill: var(--color2, #34b294)"
				d="M13.451 15.15c-0.878 0-1.444-0.057-1.501-0.057-0.085 0-0.51-0.028-0.736-0.113-0.283-0.085-0.34-0.227-0.085-0.34 0.198-0.085 0.481-0.312 0.708-0.283 0.057 0 6.598 0.595 9.912-2.322 1.274-1.104 1.954-2.605 2.011-4.474 0-0.198 0.255-0.765 0.453-0.765s0.311 0.595 0.283 0.793c-0.085 2.067-0.85 3.738-2.265 5.012-1.501 1.331-3.71 2.152-6.513 2.435-0.85 0.085-1.614 0.113-2.265 0.113z">
			</path>
			<path fill="#34b294" style="fill: var(--color2, #34b294)"
				d="M11.242 18.265c-0.623 0-1.642-0.057-2.379-0.113-0.198-0.028-0.028-0.17 0-0.368s0.198-0.368 0.396-0.34c2.634 0.17 4.474-0.028 5.55-0.227 1.161-0.227 1.727-0.481 1.727-0.51 0.17-0.085 0.396-0.028 0.51 0.17 0.085 0.17 0.028 0.396-0.17 0.51-0.085 0.057-1.784 0.878-5.635 0.878z">
			</path>
			<path fill="#34b294" style="fill: var(--color2, #34b294)"
				d="M22.881 20.956h-10.591c-0.198 0-0.368-0.17-0.368-0.368s0.17-0.368 0.368-0.368h10.619c0.198 0 0.368 0.17 0.368 0.368-0.028 0.227-0.17 0.368-0.396 0.368z">
			</path>
			<path fill="#34b294" style="fill: var(--color2, #34b294)"
				d="M25.175 24.609h-15.179c-0.198 0-0.368-0.17-0.368-0.368s0.17-0.368 0.368-0.368h15.179c0.198 0 0.368 0.17 0.368 0.368s-0.17 0.368-0.368 0.368z">
			</path>
		</symbol>
		<symbol id="icon-locat" viewBox="0 0 32 32">
			<path fill="#ffe13b" style="fill: var(--color1, #ffe13b)"
				d="M16.085 31.915c-8.722 0-15.83-7.108-15.83-15.83s7.108-15.83 15.83-15.83 15.83 7.108 15.83 15.83-7.108 15.83-15.83 15.83zM16.085 1.388c-8.099 0-14.697 6.598-14.697 14.697s6.598 14.697 14.697 14.697 14.697-6.598 14.697-14.697-6.598-14.697-14.697-14.697z">
			</path>
			<path fill="#34b294" style="fill: var(--color2, #34b294)"
				d="M24.552 24.666h-16.963c-0.198 0-0.368-0.17-0.368-0.368v-9.317c0-0.198 0.17-0.368 0.368-0.368h4.899l0.34 0.736h-4.871v8.581h16.198v-8.581h-4.758l0.34-0.736h4.786c0.198 0 0.368 0.17 0.368 0.368v9.317c0.028 0.198-0.142 0.368-0.34 0.368z">
			</path>
			<path fill="#34b294" style="fill: var(--color2, #34b294)"
				d="M24.496 21.437h-3.823c-0.198 0-0.368-0.17-0.368-0.368s0.17-0.368 0.368-0.368h3.823c0.198 0 0.368 0.17 0.368 0.368s-0.17 0.368-0.368 0.368z">
			</path>
			<path fill="#34b294" style="fill: var(--color2, #34b294)"
				d="M15.179 24.609c-0.113 0-0.227-0.057-0.283-0.142l-7.589-9.26c-0.142-0.17-0.113-0.396 0.057-0.51 0.17-0.142 0.396-0.113 0.51 0.057l7.589 9.288c0.142 0.17 0.113 0.396-0.057 0.51-0.057 0.028-0.142 0.057-0.227 0.057z">
			</path>
			<path fill="#34b294" style="fill: var(--color2, #34b294)"
				d="M16.142 5.919c2.265 0 4.191 1.841 4.106 4.106-0.028 1.019-0.651 2.237-0.651 2.237l-3.455 7.306-3.455-7.306c0 0-0.595-1.303-0.651-2.237-0.142-2.265 1.841-4.106 4.106-4.106zM16.142 5.182c-1.359 0-2.69 0.566-3.625 1.558-0.878 0.934-1.303 2.096-1.218 3.342 0.057 1.048 0.651 2.35 0.736 2.492l3.455 7.306c0.113 0.255 0.396 0.425 0.68 0.425s0.538-0.17 0.68-0.425l3.455-7.278c0.085-0.198 0.708-1.388 0.736-2.52 0.057-1.246-0.425-2.464-1.303-3.37-0.991-0.991-2.265-1.529-3.596-1.529z">
			</path>
			<path fill="#34b294" style="fill: var(--color2, #34b294)"
				d="M16.142 8.042c1.133 0 2.039 0.906 2.039 2.039s-0.906 2.039-2.039 2.039-2.039-0.906-2.039-2.039c-0.028-1.133 0.906-2.039 2.039-2.039zM16.142 7.306c-1.529 0-2.775 1.246-2.775 2.775s1.246 2.775 2.775 2.775 2.775-1.246 2.775-2.775-1.246-2.775-2.775-2.775z">
			</path>
			<path fill="#34b294" style="fill: var(--color2, #34b294)"
				d="M24.552 17.416h-5.975c-0.028 0-0.057 0-0.085 0l-0.481 0.991c0 0.028 0.028 0.057 0.057 0.085l4.786 5.947c0.085 0.085 0.17 0.142 0.283 0.142 0.085 0 0.17-0.028 0.227-0.085 0.17-0.142 0.198-0.368 0.057-0.51l-4.644-5.749 0.028-0.085h5.749c0.198 0 0.368-0.17 0.368-0.368 0.028-0.198-0.142-0.368-0.368-0.368z">
			</path>
			<path fill="#34b294" style="fill: var(--color2, #34b294)"
				d="M14.074 17.841l-2.379 2.124c-0.142 0.142-0.17 0.368-0.028 0.51 0.085 0.085 0.17 0.113 0.283 0.113 0.085 0 0.17-0.028 0.255-0.085l2.237-1.954-0.368-0.708z">
			</path>
		</symbol>
		<symbol id="icon-location" viewBox="0 0 22 32">
			<path
				d="M11.12 0c-6.131 0-11.12 4.99-11.12 11.12 0 7.707 11.135 20.875 11.135 20.875s11.11-13.548 11.11-20.875c0-6.131-4.99-11.12-11.125-11.12zM14.479 14.378c-0.926 0.926-2.142 1.386-3.358 1.386s-2.432-0.46-3.358-1.386c-1.852-1.852-1.852-4.86 0-6.711 0.896-0.896 2.087-1.391 3.358-1.391s2.457 0.495 3.358 1.391c1.852 1.852 1.852 4.86 0 6.711z">
			</path>
		</symbol>
		<symbol id="icon-pig" viewBox="0 0 32 32">
			<path fill="#ffe13b" style="fill: var(--color1, #ffe13b)"
				d="M16.085 31.915c-8.722 0-15.83-7.108-15.83-15.83s7.108-15.83 15.83-15.83c8.722 0 15.83 7.108 15.83 15.83s-7.108 15.83-15.83 15.83zM16.085 1.388c-8.099 0-14.697 6.598-14.697 14.697s6.598 14.697 14.697 14.697c8.099 0 14.697-6.598 14.697-14.697s-6.598-14.697-14.697-14.697z">
			</path>
			<path fill="#34b294" style="fill: var(--color2, #34b294)"
				d="M19.342 14.754c-0.057 0-0.113-0.028-0.17-0.057-2.011-1.104-4.219-0.481-4.248-0.453-0.198 0.057-0.396-0.057-0.453-0.255s0.057-0.396 0.255-0.453c0.113-0.028 2.52-0.736 4.814 0.51 0.17 0.085 0.255 0.312 0.142 0.51-0.085 0.113-0.227 0.198-0.34 0.198z">
			</path>
			<path fill="#34b294" style="fill: var(--color2, #34b294)"
				d="M25.203 16.85c-0.283 0-0.566-0.113-0.793-0.311-0.425 0.198-0.821 0.227-0.85 0.227-0.142 0-0.255-0.113-0.255-0.227 0-0.142 0.113-0.255 0.227-0.255 0.028 0 0.255-0.028 0.51-0.113-0.198-0.34-0.198-0.736 0-1.048 0.227-0.34 0.481-0.396 0.651-0.396 0.425 0.028 0.623 0.283 0.68 0.538 0.113 0.51-0.113 0.821-0.538 1.019 0.17 0.085 0.34 0.113 0.453 0.085 0.368-0.142 0.708-0.736 0.793-0.963 0.057-0.113 0.198-0.17 0.311-0.113s0.17 0.198 0.113 0.312c-0.057 0.113-0.453 0.963-1.076 1.218-0.028 0-0.113 0.028-0.227 0.028zM24.665 15.207c-0.057 0-0.142 0.057-0.227 0.17-0.142 0.198-0.085 0.396 0.028 0.538 0.113-0.085 0.255-0.198 0.34-0.368 0.085-0.113 0.028-0.283-0.085-0.34 0 0-0.028 0-0.057 0z">
			</path>
			<path fill="#34b294" style="fill: var(--color2, #34b294)"
				d="M23.901 17.048c-0.057-0.906-0.396-1.529-0.453-1.642-0.85-1.671-2.124-2.605-3.455-3.172-0.227 0.198-0.481 0.368-0.765 0.51 1.359 0.453 2.69 1.331 3.54 3.002 0 0 0 0.028 0.028 0.028 0.057 0.085 1.274 2.096-1.048 4.588-0.057 0.057-0.085 0.113-0.085 0.17l-0.68 3.37c-0.34 0.113-1.104 0.34-1.841 0.028l-0.198-1.388c-0.028-0.113-0.085-0.198-0.17-0.255s-0.198-0.085-0.311-0.028c-0.028 0-2.096 0.68-3.625 0.255-0.198-0.057-0.396 0.057-0.453 0.255-0.17 0.651-0.481 1.303-0.623 1.416h-0.028c-1.246 0.142-1.642 0.085-1.756 0.028-0.113-0.283-0.227-1.388-0.283-2.322 0-0.113-0.057-0.198-0.142-0.283l-2.775-2.067c-0.028-0.028-0.057-0.028-0.085-0.057l-2.265-0.934c-0.085-0.227-0.227-0.708 0-1.104l1.699-0.566c0.085-0.028 0.17-0.113 0.227-0.198 0-0.028 0.736-1.586 1.359-2.181 0.113-0.113 0.142-0.283 0.085-0.425l-1.303-2.719c0.821 0.227 2.181 0.68 2.889 1.529 0.113 0.113 0.283 0.17 0.453 0.085 0.028 0 1.841-0.878 3.427-0.793 0.113 0 0.255 0.028 0.425 0.028-0.255-0.227-0.453-0.481-0.623-0.765-1.359-0.028-2.747 0.51-3.313 0.765-1.331-1.303-3.738-1.699-3.851-1.727-0.142-0.028-0.283 0.028-0.368 0.142s-0.085 0.255-0.028 0.368l1.473 3.228c-0.538 0.623-1.076 1.671-1.246 2.067l-1.642 0.538c-0.057 0.028-0.142 0.057-0.17 0.113-0.68 0.878-0.113 2.039-0.085 2.096 0.028 0.085 0.113 0.142 0.198 0.17l2.35 0.963 2.549 1.954c0.085 1.501 0.255 2.407 0.481 2.634 0.17 0.17 0.481 0.255 1.048 0.255 0.34 0 0.793-0.028 1.331-0.085h0.057c0.538-0.057 0.934-0.934 1.161-1.642 1.218 0.227 2.577-0.057 3.257-0.227l0.17 1.161c0.028 0.113 0.085 0.227 0.198 0.283 1.359 0.736 2.804 0.028 2.86 0 0.113-0.057 0.17-0.142 0.198-0.255l0.68-3.455c1.331-1.473 1.558-2.832 1.529-3.738z">
			</path>
			<path fill="#34b294" style="fill: var(--color2, #34b294)"
				d="M10.591 15.802c0 0.283-0.227 0.481-0.481 0.481s-0.481-0.227-0.481-0.481c0-0.283 0.227-0.481 0.481-0.481s0.481 0.198 0.481 0.481z">
			</path>
			<path fill="#34b294" style="fill: var(--color2, #34b294)"
				d="M17.869 13.055c-1.784 0-3.228-1.444-3.228-3.228s1.444-3.228 3.228-3.228c1.784 0 3.228 1.444 3.228 3.228-0.028 1.784-1.473 3.228-3.228 3.228zM17.869 7.363c-1.359 0-2.464 1.104-2.464 2.464s1.104 2.464 2.464 2.464c1.359 0 2.464-1.104 2.464-2.464s-1.104-2.464-2.464-2.464z">
			</path>
		</symbol>
		<symbol id="icon-pin" viewBox="0 0 26 32">
			<path
				d="M12.309 0.007c-6.358 0.223-11.64 5.184-12.25 11.515-0.125 1.266-0.052 2.493 0.171 3.668v0c0 0 0.020 0.138 0.085 0.4 0.197 0.879 0.492 1.732 0.86 2.533 1.279 3.031 4.239 8.103 10.879 13.621 0.407 0.341 1.004 0.341 1.417 0 6.64-5.512 9.599-10.584 10.885-13.628 0.374-0.8 0.663-1.647 0.86-2.533 0.059-0.256 0.085-0.4 0.085-0.4v0c0.151-0.787 0.23-1.594 0.23-2.421 0-7.204-5.964-13.011-13.221-12.755zM12.762 19.113c-3.425 0-6.201-2.775-6.201-6.201s2.775-6.201 6.201-6.201 6.201 2.775 6.201 6.201-2.775 6.201-6.201 6.201z">
			</path>
		</symbol>
		<symbol id="icon-tick" viewBox="0 0 16 14">
			<path d="M6.12669 12.9771C5.97396 13.1307 5.76558 13.2164 5.54913 13.2164C5.33267 13.2164 5.1243 13.1307 4.97157 12.9771L0.359012 8.36379C-0.119671 7.88511 -0.119671 7.1089 0.359012 6.63111L0.936573 6.0534C1.4154 5.57472 2.19072 5.57472 2.6694 6.0534L5.54913 8.93328L13.3306 1.15169C13.8094 0.67301 14.5855 0.67301 15.0634 1.15169L15.641 1.7294C16.1196 2.20809 16.1196 2.98415 15.641 3.46208L6.12669 12.9771Z" fill="currentColor"/>
        </symbol>
		<symbol id="icon-chevron" viewBox="0 0 5.2 9.2">
			<path fill="currentColor" d="M3.3,4.6L0.2,1.2c-0.3-0.3-0.3-0.7,0-1c0.3-0.3,0.7-0.3,1,0L5,4.1c0.3,0.3,0.3,0.7,0,1L1.2,9c-0.3,0.3-0.7,0.3-1,0 c-0.3-0.3-0.3-0.7,0-1L3.3,4.6z"></path>
        </symbol>
		<symbol id="icon-stopwatch" viewBox="0 0 432.8 512">
			<path fill="currentColor" d="M382.9,157.4l20.1-20.1c7.8-7.8,7.8-20.4,0-28.2c-7.8-7.8-20.4-7.8-28.2,0l-20.1,20.1c-33.7-28.1-74.6-45-118.3-49V39.9 h19.3c11,0,20-8.9,20-20s-8.9-20-20-20h-78.6c-11,0-20,8.9-20,20s8.9,20,20,20h19.3v40.2C87.1,90.1,0,181.9,0,295.6 C0,415.2,96.8,512,216.4,512c119.6,0,216.4-96.8,216.4-216.4C432.8,244.5,415.2,196.1,382.9,157.4z M216.4,472.1 c-97.3,0-176.4-79.1-176.4-176.4c0-97.3,79.2-176.4,176.4-176.4c97.3,0,176.4,79.1,176.4,176.4C392.8,392.9,313.7,472.1,216.4,472.1 z M308.9,203.1c7.8,7.8,7.8,20.4,0,28.2l-78.4,78.4c-7.8,7.8-20.4,7.8-28.2,0c-7.8-7.8-7.8-20.4,0-28.2l78.4-78.4 C288.5,195.3,301.1,195.3,308.9,203.1z"/>
        </symbol>
		<symbol id="icon-star" viewBox="0 0 46.4 44.3">
			<path fill="currentColor" d="M21.6,1c0.3-0.6,0.9-1,1.6-1s1.3,0.4,1.6,1l5.8,11.7c0.3,0.5,0.8,0.9,1.4,1l12.9,1.9c0.7,0.1,1.2,0.6,1.4,1.2s0,1.4-0.5,1.8 l-9.3,9.1c-0.4,0.4-0.6,1-0.5,1.6l2.2,12.9c0.1,0.7-0.2,1.4-0.7,1.8c-0.6,0.4-1.3,0.5-1.9,0.1L24,38c-0.5-0.3-1.1-0.3-1.7,0 l-11.5,6.1c-0.6,0.3-1.3,0.3-1.9-0.1c-0.6-0.4-0.8-1.1-0.7-1.8l2.2-12.9c0.1-0.6-0.1-1.2-0.5-1.6l-9.3-9.1c-0.5-0.5-0.7-1.2-0.5-1.8 s0.8-1.1,1.4-1.2l12.9-1.9c0.6-0.1,1.1-0.5,1.4-1L21.6,1z"/>
        </symbol>
		<symbol id="icon-pdf" viewBox="0 0 409.6 512">
			<path d="M256.1,0H64C28.7,0,0,28.7,0,64v384c0,35.3,28.7,64,64,64h281.6c35.3,0,64-28.7,64-64V153.6L256.1,0z  M360.3,140.8h-53.1c-21.2,0-38.4-17.2-38.4-38.4V49.1L360.3,140.8z M384,448c0,21.2-17.2,38.4-38.4,38.4H64 c-21.2,0-38.4-17.2-38.4-38.4V64c0-21.2,17.2-38.4,38.4-38.4h179.2v76.8c0,35.3,28.7,64,64,64H384V448z"/>
			<path d="M294.3,363.6c-0.3-3.2-3.4-19.3-30.7-18.5c-19.3,0.5-28.1,1.5-31.5,2.1c-4.1-4.4-18.4-20.2-24.6-33.1 c1.7-5.4,8.4-27.4,8.1-42.2c-0.3-13.4-2.8-28.6-19.3-28.6H196c-4.8,0.1-8.6,1.6-11.3,4.6c-4.3,4.8-5.5,12.6-4.2,26.3 c1.3,13,7,27.7,8.6,31.7c-1.3,4.1-6.4,19.5-12.7,34.7c-5.9,14.3-10.4,23.1-11.9,26c-5.2,1.9-26.1,9.8-36.2,19.4 c-9.4,9-17.9,19.6-10,30.6c2.6,3.7,7.6,5.9,13.2,5.9h0.2c10.1,0,20.9-6.7,29.6-18.3c13.1-17.6,20.1-29.5,22.2-33.2 c5-1.4,23.5-6.6,29.8-8.1c5.4-1.3,11.7-2.5,14.5-3c4.9,4.8,24.4,22,43.8,21.4c9-0.3,15.5-2.7,19.3-7.1 C293.5,371.1,294.7,367.4,294.3,363.6L294.3,363.6z M131.8,408.9c-1.3,0.5-2.7,0.3-3.9-0.4l0,0c-1.1-0.7-1.2-1.2-1-2.1 c1.4-6.5,17.2-17.4,27.1-22.6C148.3,393.5,139.1,406.8,131.8,408.9z M195.4,254.3c1.1,0,3.7,0,3.8,9.8c0.1,6.5-2.5,17.2-4.5,24.4 c-2.2-6.7-3.4-13.7-3.5-20.8C191.3,257.9,193.8,254.4,195.4,254.3L195.4,254.3z M204.2,353.3c-5.4,1.4-9.7,2.7-13,3.9l2.3-5.3 c3.3-7.6,6.6-16.8,8.7-22.8c4.7,7.4,9.9,14.4,15.5,21.1C214.7,350.9,210.2,351.9,204.2,353.3L204.2,353.3z M272.9,366.9 c-5.8,2.4-18.6-1.3-29.5-9.6c11.4-1.5,26.1-1.9,30.9,2.1c0.9,0.7,1.4,1.7,1.4,2.8C275.7,364.6,274.8,366.1,272.9,366.9z"/>
        </symbol>
	</defs>
</svg>